<svg width="171" height="70" viewBox="0 0 171 70" fill="none" xmlns="http://www.w3.org/2000/svg">
<g clip-path="url(#clip0_1_6)">
<path d="M83.8262 7.17095C83.1863 -6.36906 98.6724 2.72537 99.3801 10.9766C99.8845 13.4083 99.5645 16.4009 97.4189 17.9969C97.0236 18.2642 96.8128 18.2077 96.5719 17.805C95.2845 14.8688 94.6296 11.6203 92.356 9.19612C90.312 6.83593 86.5666 4.86723 83.8262 7.17095Z" fill="#0B040C"/>
<path d="M88.8588 18.3809C86.5702 17.5377 83.0318 9.88494 84.417 7.81837C87.4585 5.07046 91.6858 8.78954 93.3044 11.7595C93.5679 11.9929 93.3307 12.4559 93.0108 12.3806C90.1198 12.4747 90.884 17.2704 88.8588 18.3809ZM86.8675 7.28008C83.7131 7.15209 84.289 10.092 85.2564 12.0268C86.1184 14.0821 86.8412 16.7434 88.8776 17.948C90.436 16.1336 89.8451 12.3731 92.9167 11.9515C91.4524 9.50851 89.6305 7.66403 86.8675 7.28008Z" fill="#0B040C"/>
<path d="M100.438 13.781C100.483 8.66157 97.4828 4.31763 93.79 1.27611C95.5367 -0.53449 99.8204 -0.50814 101.296 1.94239C103.272 5.42808 102.199 9.82096 100.438 13.781ZM94.2719 1.31376C97.7613 3.75299 100.216 7.73933 100.724 12.0343C103.344 6.41808 101.687 -2.56342 94.2719 1.31376Z" fill="#0B040C"/>
<path d="M49.3192 66.3976C49.3493 68.532 45.9991 68.532 46.0293 66.3976C45.9991 64.2633 49.3493 64.2633 49.3192 66.3976Z" fill="#0B040C"/>
<path d="M133.687 66.3976C133.717 68.532 130.367 68.532 130.397 66.3976C130.367 64.2633 133.721 64.2633 133.687 66.3976Z" fill="#0B040C"/>
<path d="M56.4674 69.9812C55.8651 69.9812 55.3457 69.872 54.909 69.6575C54.4724 69.4429 54.111 69.1606 53.8287 68.8105C53.5464 68.4604 53.3356 68.084 53.1963 67.685C53.057 67.286 52.9893 66.902 52.9893 66.5331V66.3299C52.9893 65.9309 53.0608 65.5281 53.2001 65.1215C53.3431 64.715 53.5577 64.3461 53.8437 64.0111C54.1336 63.6761 54.495 63.405 54.9278 63.2055C55.3607 63.0023 55.8727 62.9006 56.4637 62.9006C57.0546 62.9006 57.5666 63.0023 57.9995 63.2055C58.4324 63.4088 58.7937 63.6761 59.0836 64.0111C59.3734 64.3461 59.588 64.7188 59.731 65.1215C59.8741 65.5281 59.9418 65.9309 59.9418 66.3299V66.5331C59.9418 66.902 59.8741 67.286 59.7348 67.685C59.5955 68.084 59.3847 68.4604 59.1024 68.8105C58.8201 69.1606 58.4587 69.4429 58.0221 69.6575C57.5892 69.872 57.0697 69.9812 56.4674 69.9812ZM56.4674 69.1493C56.8589 69.1493 57.2165 69.074 57.5327 68.9272C57.8489 68.7804 58.1199 68.5771 58.3383 68.3212C58.5603 68.0652 58.7297 67.7753 58.8464 67.4554C58.9631 67.1316 59.0196 66.7929 59.0196 66.4353C59.0196 66.0588 58.9594 65.7088 58.8464 65.385C58.7297 65.0575 58.5603 64.7715 58.3383 64.523C58.1162 64.2746 57.8489 64.0788 57.5327 63.9358C57.2165 63.7928 56.8589 63.725 56.4674 63.725C56.0722 63.725 55.7183 63.7965 55.4021 63.9358C55.0859 64.0751 54.8149 64.2708 54.5966 64.523C54.3745 64.7715 54.2051 65.0613 54.0884 65.385C53.9717 65.7125 53.9115 66.0626 53.9115 66.4353C53.9115 66.7929 53.9717 67.1316 54.0884 67.4554C54.2051 67.7791 54.3745 68.0689 54.5966 68.3212C54.8187 68.5734 55.0859 68.7766 55.4021 68.9272C55.7183 69.074 56.0722 69.1493 56.4674 69.1493Z" fill="#0B040C"/>
<path d="M61.4287 69.8494V63.0399H62.3321V69.8494H61.4287ZM62.1514 69.8494V69.0175H63.8303C64.2368 69.0175 64.5982 68.9498 64.9144 68.818C65.2306 68.6863 65.5016 68.5018 65.7275 68.2684C65.9533 68.035 66.1227 67.7602 66.2394 67.4478C66.3561 67.1354 66.4163 66.7966 66.4163 66.4315C66.4163 66.0513 66.3561 65.705 66.2394 65.3925C66.1227 65.0839 65.9533 64.8128 65.7275 64.5795C65.5016 64.3498 65.2306 64.1729 64.9144 64.0487C64.5982 63.9245 64.2368 63.8643 63.8303 63.8643H62.1514V63.0323H63.7362C64.346 63.0323 64.873 63.1265 65.3247 63.3147C65.7727 63.5029 66.1453 63.7551 66.4465 64.0713C66.7438 64.3875 66.9659 64.7413 67.1165 65.1328C67.2633 65.5243 67.3386 65.9195 67.3386 66.3261V66.5293C67.3386 66.9246 67.2633 67.3161 67.1165 67.7113C66.9697 68.1066 66.7438 68.4604 66.4465 68.7804C66.1491 69.1003 65.7727 69.3563 65.3247 69.552C64.8768 69.744 64.346 69.8419 63.7362 69.8419H62.1514V69.8494Z" fill="#0B040C"/>
<path d="M71.7465 69.9812C71.1442 69.9812 70.6247 69.872 70.1881 69.6575C69.7514 69.4429 69.3901 69.1606 69.1077 68.8105C68.8254 68.4604 68.6146 68.084 68.4753 67.685C68.3361 67.286 68.2683 66.902 68.2683 66.5331V66.3299C68.2683 65.9309 68.3398 65.5281 68.4791 65.1215C68.6221 64.715 68.8367 64.3461 69.1228 64.0111C69.4126 63.6761 69.774 63.405 70.2069 63.2055C70.6398 63.0023 71.1517 62.9006 71.7427 62.9006C72.3337 62.9006 72.8456 63.0023 73.2785 63.2055C73.7114 63.4088 74.0728 63.6761 74.3626 64.0111C74.6525 64.3461 74.867 64.7188 75.0101 65.1215C75.1531 65.5281 75.2209 65.9309 75.2209 66.3299V66.5331C75.2209 66.902 75.1531 67.286 75.0138 67.685C74.8746 68.084 74.6638 68.4604 74.3815 68.8105C74.0991 69.1606 73.7378 69.4429 73.3011 69.6575C72.8682 69.872 72.3488 69.9812 71.7465 69.9812ZM71.7465 69.1493C72.138 69.1493 72.4956 69.074 72.8118 68.9272C73.128 68.7804 73.399 68.5771 73.6173 68.3212C73.8394 68.0652 74.0088 67.7753 74.1255 67.4554C74.2422 67.1316 74.2986 66.7929 74.2986 66.4353C74.2986 66.0588 74.2384 65.7088 74.1255 65.385C74.0088 65.0575 73.8394 64.7715 73.6173 64.523C73.3952 64.2746 73.128 64.0788 72.8118 63.9358C72.4956 63.7928 72.138 63.725 71.7465 63.725C71.3512 63.725 70.9974 63.7965 70.6812 63.9358C70.365 64.0751 70.094 64.2708 69.8756 64.523C69.6536 64.7715 69.4842 65.0613 69.3675 65.385C69.2508 65.7125 69.1906 66.0626 69.1906 66.4353C69.1906 66.7929 69.2508 67.1316 69.3675 67.4554C69.4842 67.7791 69.6536 68.0689 69.8756 68.3212C70.0977 68.5734 70.365 68.7766 70.6812 68.9272C70.9974 69.074 71.3512 69.1493 71.7465 69.1493Z" fill="#0B040C"/>
<path d="M76.7078 69.8155V63.0813H78.1833L81.6051 69.0025H81.8987L81.7142 69.1681V63.0813H82.58V69.8155H81.0856L77.6639 63.8944H77.3703L77.5547 63.7288V69.8193H76.7078V69.8155Z" fill="#0B040C"/>
<path d="M83.8035 63.8906V63.0775H88.8024V63.8906H83.8035ZM85.8512 69.8155V63.7099H86.7546V69.8155H85.8512Z" fill="#0B040C"/>
<path d="M92.8451 69.9812C92.2428 69.9812 91.7234 69.872 91.2867 69.6575C90.8501 69.4429 90.4887 69.1606 90.2064 68.8105C89.9241 68.4604 89.7133 68.084 89.574 67.685C89.4347 67.286 89.3669 66.902 89.3669 66.5331V66.3299C89.3669 65.9309 89.4385 65.5281 89.5777 65.1215C89.7208 64.715 89.9353 64.3461 90.2214 64.0111C90.5113 63.6761 90.8726 63.405 91.3055 63.2055C91.7384 63.0023 92.2504 62.9006 92.8413 62.9006C93.4323 62.9006 93.9443 63.0023 94.3772 63.2055C94.81 63.4088 95.1714 63.6761 95.4613 64.0111C95.7511 64.3461 95.9657 64.7188 96.1087 65.1215C96.2518 65.5281 96.3195 65.9309 96.3195 66.3299V66.5331C96.3195 66.902 96.2518 67.286 96.1125 67.685C95.9732 68.084 95.7624 68.4604 95.4801 68.8105C95.1978 69.1606 94.8364 69.4429 94.3997 69.6575C93.9669 69.872 93.4474 69.9812 92.8451 69.9812ZM92.8451 69.1493C93.2366 69.1493 93.5942 69.074 93.9104 68.9272C94.2266 68.7804 94.4976 68.5771 94.7159 68.3212C94.938 68.0652 95.1074 67.7753 95.2241 67.4554C95.3408 67.1316 95.3973 66.7929 95.3973 66.4353C95.3973 66.0588 95.337 65.7088 95.2241 65.385C95.1074 65.0575 94.938 64.7715 94.7159 64.523C94.4938 64.2746 94.2266 64.0788 93.9104 63.9358C93.5942 63.7928 93.2366 63.725 92.8451 63.725C92.4499 63.725 92.096 63.7965 91.7798 63.9358C91.4636 64.0751 91.1926 64.2708 90.9743 64.523C90.7522 64.7715 90.5828 65.0613 90.4661 65.385C90.3494 65.7125 90.2892 66.0626 90.2892 66.4353C90.2892 66.7929 90.3494 67.1316 90.4661 67.4554C90.5828 67.7791 90.7522 68.0689 90.9743 68.3212C91.1964 68.5734 91.4636 68.7766 91.7798 68.9272C92.096 69.074 92.4499 69.1493 92.8451 69.1493Z" fill="#0B040C"/>
<path d="M97.8064 69.8155V63.0813H98.7098V69.8155H97.8064ZM98.5254 69.8155V69.0025H101.608V69.8155H98.5254Z" fill="#0B040C"/>
<path d="M105.741 69.9812C105.139 69.9812 104.62 69.872 104.183 69.6575C103.746 69.4429 103.385 69.1606 103.103 68.8105C102.82 68.4604 102.609 68.084 102.47 67.685C102.331 67.286 102.263 66.902 102.263 66.5331V66.3299C102.263 65.9309 102.335 65.5281 102.474 65.1215C102.617 64.715 102.832 64.3461 103.118 64.0111C103.408 63.6761 103.769 63.405 104.202 63.2055C104.635 63.0023 105.147 62.9006 105.738 62.9006C106.329 62.9006 106.841 63.0023 107.273 63.2055C107.706 63.4088 108.068 63.6761 108.357 64.0111C108.647 64.3461 108.862 64.7188 109.005 65.1215C109.148 65.5281 109.216 65.9309 109.216 66.3299V66.5331C109.216 66.902 109.148 67.286 109.009 67.685C108.869 68.084 108.659 68.4604 108.376 68.8105C108.094 69.1606 107.733 69.4429 107.296 69.6575C106.863 69.872 106.344 69.9812 105.741 69.9812ZM105.741 69.1493C106.133 69.1493 106.49 69.074 106.807 68.9272C107.123 68.7804 107.394 68.5771 107.612 68.3212C107.834 68.0652 108.004 67.7753 108.12 67.4554C108.237 67.1316 108.294 66.7929 108.294 66.4353C108.294 66.0588 108.233 65.7088 108.12 65.385C108.004 65.0575 107.834 64.7715 107.612 64.523C107.39 64.2746 107.123 64.0788 106.807 63.9358C106.49 63.7928 106.133 63.725 105.741 63.725C105.346 63.725 104.992 63.7965 104.676 63.9358C104.36 64.0751 104.089 64.2708 103.871 64.523C103.648 64.7715 103.479 65.0613 103.362 65.385C103.246 65.7125 103.185 66.0626 103.185 66.4353C103.185 66.7929 103.246 67.1316 103.362 67.4554C103.479 67.7791 103.648 68.0689 103.871 68.3212C104.093 68.5734 104.36 68.7766 104.676 68.9272C104.992 69.074 105.346 69.1493 105.741 69.1493Z" fill="#0B040C"/>
<path d="M113.71 69.9812C113.187 69.9812 112.713 69.8946 112.291 69.7214C111.866 69.5483 111.501 69.3074 111.2 68.9912C110.895 68.6787 110.661 68.3061 110.492 67.8807C110.326 67.4554 110.243 66.9886 110.243 66.4842V66.2809C110.243 65.8518 110.319 65.434 110.469 65.0312C110.62 64.6284 110.838 64.267 111.124 63.9433C111.41 63.6196 111.76 63.3636 112.171 63.1792C112.581 62.991 113.048 62.8969 113.563 62.8969C114.124 62.8969 114.621 63.0023 115.058 63.2168C115.495 63.4276 115.845 63.725 116.108 64.1014C116.372 64.4778 116.526 64.9183 116.567 65.4151H115.645C115.604 65.0387 115.479 64.7263 115.276 64.4778C115.073 64.2294 114.821 64.0412 114.523 63.9132C114.226 63.789 113.902 63.725 113.56 63.725C113.21 63.725 112.886 63.789 112.592 63.9132C112.299 64.0374 112.043 64.2181 111.832 64.4515C111.621 64.6849 111.455 64.9634 111.339 65.2909C111.222 65.6184 111.162 65.9835 111.162 66.3901C111.162 66.8531 111.226 67.2559 111.35 67.6022C111.474 67.9485 111.651 68.2383 111.881 68.4679C112.107 68.6976 112.378 68.8745 112.686 68.9874C112.999 69.1041 113.338 69.1643 113.707 69.1643C114.23 69.1643 114.689 69.0589 115.084 68.8444C115.479 68.6336 115.781 68.3588 115.984 68.02L115.653 69.1192V67.1166H116.5V68.7201C116.198 69.1154 115.811 69.4203 115.336 69.6424C114.87 69.8682 114.324 69.9812 113.71 69.9812ZM113.469 67.3048V66.5482H117.076V67.3048H113.469Z" fill="#0B040C"/>
<path d="M118.389 69.8155V63.0813H119.293V69.8155H118.389Z" fill="#0B040C"/>
<path d="M120.546 69.8155L122.974 63.0813H124.506L127.006 69.8155H126.072L123.814 63.6723L124.258 63.8944H123.17L123.64 63.6723L121.453 69.8155H120.546ZM121.995 67.8017L122.3 66.9886H125.206L125.511 67.8017H121.995Z" fill="#0B040C"/>
<path d="M96.568 66.3977C96.6395 71.1971 89.096 71.1971 89.1675 66.3977C89.096 61.5982 96.6395 61.5982 96.568 66.3977Z" fill="#0B040C"/>
<path d="M34.3074 28.5143C34.2773 28.4841 34.2321 28.4089 34.1719 28.2884C26.4777 29.3913 18.7535 30.5695 11.1874 32.2973C7.88987 33.0276 4.61873 33.9687 1.37019 35.1205C0.681329 35.2937 0.0790492 35.3878 0 34.3902C7.4758 31.217 15.2941 29.3198 23.2819 27.8743C27.2908 27.1252 31.1943 26.7752 35.2183 26.1428C35.8357 26.0788 36.2648 25.07 36.7428 24.9344C37.4957 25.2506 37.3225 26.203 38.6777 26.0035C42.2236 26.7488 50.2339 25.3335 52.3908 28.0061C53.1173 29.0488 51.2954 30.5996 50.9303 29.0525C50.377 27.321 45.1484 28.6046 43.4809 28.2093C41.2599 28.4841 38.433 27.5732 36.4869 28.5971C32.9598 36.2272 27.0988 43.8009 27.7839 52.5189C22.1263 48.9504 32.5419 33.3852 34.3074 28.5143Z" fill="#0B040C"/>
<path d="M50.1624 44.2789C50.5012 44.1359 50.8324 44.4784 51.1637 44.5537C47.8436 46.8386 43.0818 46.9967 39.2724 48.5626C40.748 54.0961 24.4338 51.9128 36.7654 48.0168C32.6323 46.5901 34.8494 43.9476 37.7667 43.0969C38.4066 43.2851 39.0014 44.4182 37.9474 44.4633C37.0553 44.644 36.0502 45.5512 35.6249 46.3756C36.9009 46.8762 38.0942 47.8324 39.5435 47.2414C43.0781 46.0632 46.5788 45.2689 50.1624 44.2789ZM34.2622 50.3807C35.8244 50.569 37.5108 50.2979 38.0905 48.8788L34.2622 50.3807Z" fill="#0B040C"/>
<path d="M67.2033 44.2789C67.4404 44.3278 67.6023 44.5236 67.7943 44.644C66.4203 45.9992 63.9886 45.9051 62.1893 46.6504C60.1227 47.2263 58.2293 46.6353 58.0449 44.2789C55.6922 45.5851 50.8137 49.9441 49.6167 45.3743C49.8162 43.9439 52.0032 39.5096 53.4449 42.186C52.0108 42.8221 51.6532 44.1923 51.1224 45.5136C50.49 48.1071 56.2644 43.5938 57.1828 43.2814C58.6622 42.4419 59.6409 43.8309 59.415 45.2388C59.3887 47.0833 65.8406 44.1434 67.2033 44.2789Z" fill="#0B040C"/>
<path d="M92.0773 44.3692C92.3332 44.2337 92.6607 44.3391 92.9431 44.324C92.2166 46.0029 89.7434 46.304 88.3431 47.3768C85.7044 48.7847 82.9828 50.0005 80.1408 50.9303C75.5974 52.6957 69.5068 53.8476 66.4277 49.0632C66.0927 50.5539 65.8555 51.988 65.927 53.4824C63.2883 52.5376 66.3524 48.2953 65.5619 46.4659C65.5882 45.6302 66.4879 44.9075 66.7025 44.0492C69.7101 36.3777 72.9361 26.7149 80.4382 22.5441C84.1912 23.2367 78.7932 32.1166 77.7505 34.0476C75.3 37.9888 71.9574 41.5874 68.1141 44.2751C70.8733 43.4206 73.8169 42.7355 76.7041 43.3416C77.9576 43.7594 78.6954 44.979 77.2273 45.7318C74.2498 47.3467 70.7679 47.6102 67.5682 48.555C73.3163 55.8502 85.6705 47.4032 92.0773 44.3692ZM68.705 45.1898C67.5268 45.634 67.0412 46.2852 66.9735 47.5575C70.5194 46.8536 74.1632 46.4282 77.1784 44.324C74.2837 43.3491 71.4718 44.3278 68.705 45.1898ZM80.6867 23.6395C75.0553 27.7161 70.621 35.7265 68.7502 42.3666C74.3401 38.2673 79.6741 30.5318 80.6867 23.6395Z" fill="#0B040C"/>
<path d="M107.977 44.6403C107.435 45.8787 105.482 46.1272 104.379 46.737C102.158 47.6216 98.4577 48.4422 98.0925 45.0506C85.2376 56.0384 90.8351 38.881 97.2268 42.9991C97.9947 43.6729 99.5757 43.255 99.3686 44.7306C98.484 49.6317 106.494 43.1722 107.977 44.6403ZM96.5868 44.2789C96.6772 44.2149 96.7939 43.8159 96.7224 43.7331C94.6897 42.6565 92.3408 45.6754 91.8025 47.4221C93.5303 46.6956 94.972 45.2764 96.5868 44.2789Z" fill="#0B040C"/>
<path d="M135.314 44.2789C135.622 44.4106 135.871 44.4219 136.179 44.5537C134.324 46.3078 131.026 46.9967 128.572 47.7909C121.747 48.8449 126.166 40.2248 121.875 43.3717C119.756 44.6704 117.757 46.2212 115.792 47.7232C110.65 48.7847 119.575 35.5421 106.886 47.6554C106.363 48.2238 105.026 49.4208 104.699 48.0431C105.166 45.9276 107.157 44.1622 108.343 42.0956C109.732 41.6853 109.453 43.0292 108.889 43.782C113.022 40.9061 115.924 40.1307 115.175 46.4697C117.836 44.8473 120.626 41.4256 123.9 41.8208C125.493 42.6151 124.751 45.3705 125.79 46.5148C128.843 47.6667 132.366 45.1108 135.314 44.2789Z" fill="#0B040C"/>
<path d="M149.621 44.2751C149.919 44.324 150.137 44.5198 150.397 44.6402C147.555 47.1736 142.955 46.8084 139.439 46.8047C138.63 47.1962 137.783 48.54 136.819 48.604C134.32 48.9879 133.793 46.2287 135.088 44.3203C136.123 43.2964 135.543 41.4331 136.612 40.4017C137.9 38.7943 140.053 40.0328 140.576 41.6778C141.065 43.1082 140.271 44.4671 139.962 45.8674C143.26 46.2024 146.569 45.6641 149.621 44.2751ZM136.273 47.6027C136.966 47.2338 137.58 46.6993 138.231 46.2363C137.538 45.5361 137 45.186 136.273 44.5047C136.108 45.2726 134.568 48.0695 136.273 47.6027ZM138.731 45.1409C140.376 43.3717 139.556 38.1281 137.181 42.0881C137.448 42.5586 137.105 43.4695 137.181 43.9551C137.572 44.3278 138.163 45.5662 138.731 45.1409Z" fill="#0B040C"/>
<path d="M158.87 34.4354C159.209 34.5634 159.348 34.857 159.646 35.0753C158.29 36.0917 156.175 35.2936 154.952 36.5321C151.982 42.3704 147.822 49.1461 149.941 55.8954L149.806 56.0309C145.003 52.2441 150.916 41.147 152.994 36.6676C151.556 36.7316 149.546 38.2937 148.756 36.5321C150.442 35.5985 152.87 35.9336 154.27 34.5257C155.268 33.1292 155.979 31.5331 157.026 30.1968C159.544 30.0877 156.401 33.5847 156.137 34.6612C157.06 34.601 157.986 34.3639 158.87 34.4354Z" fill="#0B040C"/>
<path d="M169.666 44.2751C169.964 44.324 170.182 44.5198 170.442 44.6402C167.6 47.1736 163 46.8084 159.484 46.8047C158.675 47.1962 157.828 48.54 156.864 48.604C154.364 48.9879 153.837 46.2287 155.132 44.3203C156.168 43.2964 155.588 41.4331 156.657 40.4017C157.944 38.7943 160.097 40.0328 160.621 41.6778C161.11 43.1082 160.316 44.4671 160.007 45.8674C163.305 46.2024 166.613 45.6641 169.666 44.2751ZM156.318 47.6027C157.011 47.2338 157.624 46.6993 158.276 46.2363C157.583 45.5361 157.045 45.186 156.318 44.5047C156.152 45.2726 154.617 48.0695 156.318 47.6027ZM158.78 45.1409C160.425 43.3717 159.604 38.1281 157.229 42.0881C157.496 42.5586 157.154 43.4695 157.229 43.9551C157.621 44.3278 158.212 45.5662 158.78 45.1409Z" fill="#0B040C"/>
</g>
<defs>
<clipPath id="clip0_1_6">
<rect width="170.441" height="70" fill="white"/>
</clipPath>
</defs>
</svg>
